<svg xmlns="http://www.w3.org/2000/svg" width="120" height="30" viewBox="0 0 120 29.8" fill-rule="evenodd"><path d="M17.4 24.1c2.1.7 4.2.8 6.3.2s3.8-1.8 5.3-3.5c.1.2 0 .3-.1.4-2 4.5-5.4 7.3-10 8.6-.3.1-.6.1-.8-.1-1.7-1.6-2.6-3.5-2.4-5.9.3-3.5 2.1-6 5.2-7.6 0 0 .1 0 .1-.1-.4-.1-.8-.1-1.2 0-4.7.6-8.7 4.5-9.4 9.2-.2 1.3-.1 2.6.2 3.8 0 .1.1.3 0 .4s-.2.1-.4 0c-4.8-1.8-8-5.1-9.6-9.9-.4-1.5-.6-2.9-.6-4.3v-.2c0-.1 0-.2.2-.2.1 0 .1.1.2.2.2 1.3.9 2.4 1.8 3.3 1.2 1.2 2.6 1.4 4.2 1.2 2.3-.3 4.3-1.3 6.3-2.2 1.6-.7 3.3-1.5 5-2 1.8-.5 3.6-.6 5.4.2 2.3 1 3.3 3.7 2.1 5.7-.7 1.1-1.8 1.7-2.9 2.1-1.2.4-2.4.4-3.7.5h-1.2v.2z" fill="#023465"/><path d="M10.7 1.9a3.14 3.14 0 0 0-1.6 1.8c-.2.7 0 1.3.7 1.6.8.4 1.6.5 2.5.6 1.8 0 3.7-.2 5.5-.6 2-.4 3.9-.6 5.9-.1 3.3.9 5.2 3.1 6.1 6.3 0 .2 0 .4.1.6-.2 0-.2-.1-.2-.2-1.1-2.6-3.2-4-5.8-4.8-1.8-.5-3.6-.3-5.4 0L12 8c-1.3 0-2.6 0-3.9-.5-.2-.1-.4-.1-.6-.2-.8-.5-1-1.2-.7-2.1.1-.2.2-.5.3-.8-.6.1-1 .5-1.3.9-.8 1.2-.9 3.1.7 4.2.9.6 1.9.8 3 .8 3.1 0 6.1-.6 9.1-1.4 1.8-.5 3.7-.7 5.6-.2 2.9.6 4.8 2.4 5.8 5.3v.2c-.1 0-.1 0-.1-.1-1-2-2.8-2.9-4.9-3.3-1.8-.3-3.5-.2-5.3.3l-5.4 1.7c-2.4.7-4.9 1.3-7.5 1.2a8.15 8.15 0 0 1-3.1-.6c-1.8-.7-2.6-2.1-2.2-4.1.3-1.4.9-2.5 1.8-3.5 1.5-2 3.4-3.6 5.7-4.5C14.9-1 20.3-.2 25.2 3.9c.2.1.3.3.4.4s.1.1 0 .2-.1 0-.2 0C23.2 3 20.7 3 18.1 3.4c-1.5.3-2.9.6-4.4.7-.6.1-1.3 0-1.9-.1-1-.2-1.6-.9-1.1-2v-.1z" fill="#486A25"/><path d="M57.4 22.9c.8-.5.7-1.2.7-2v-5.2c0-.5-.2-.9-.5-1.3-.1-.1-.2-.1-.2-.3h1.3c.3 0 .7 0 1-.2.2-.1.3 0 .3.2v1.1c.1.1.2 0 .2 0 1.1-1.7 3.8-1.6 5.1-.2.1.2.2.5.5.5.2 0 .3-.3.5-.5 1.2-1.4 3.4-1.3 4.6-.6 1 .6 1.4 1.6 1.4 2.7v4c0 .7 0 1.4.7 1.9h-3.2c.9-1.1.6-2.5.7-3.7 0-.8 0-1.7-.2-2.5-.3-1-.9-1.5-1.9-1.5-1.1 0-1.7.5-2 1.5-.1.5-.2.9-.2 1.4l.1 2.6c0 .8 0 1.6.7 2.2h-3.3c.7-.8.7-1.8.7-2.8s.1-2.1-.1-3.1c-.1-.3-.2-.7-.4-1-.4-.8-1.1-1-2-.9-.8.1-1.3.5-1.6 1.2s-.3 1.3-.3 2c0 .9.1 1.8 0 2.6 0 .7 0 1.3.7 1.9-1.2.1-2.2.1-3.3 0zm-21 4h-3.1v-.1a2.19 2.19 0 0 0 .7-1.7v-9.4c0-.5-.2-1-.5-1.3l-.2-.2c.1-.1.2-.1.3-.1.6 0 1.1.1 1.7 0 .5-.1.5 0 .5.4 0 .2-.1.5.1.6s.3-.2.4-.3c2.4-1.9 6.4-.4 6.9 2.7.4 2.1-.5 4.2-2.1 5.2-1 .6-2.1.7-3.2.6-.1 0-.3-.1-.4-.1-.6-.3-.9-.9-1.3-1.5.5.2 1 .3 1.5.4 2.2.3 3.6-1 3.6-3.2 0-1.2-.4-2.3-1.5-3-1.2-.8-3.1-.4-3.9.8-.2.3-.3.6-.3.9v8.3c0 .4.3.7.5 1 .2-.2.3-.1.3 0zM103 22l-.6 1.1c-.1.1-.2.1-.3.2-.8 0-1.5-.3-2-.8-.2-.3-.4-.6-.4-.9l-.1-2.8c0-.3 0-.5-.4-.3-.6.3-1.3.4-2 .6-.3.1-.7.1-1 .4-.7.6-.5 1.8.3 2.2.5.3 1.1.4 1.6.3.3 0 .7-.1 1-.1-.8 1.4-1.1 1.6-2.7 1.4-1.5-.2-2.6-1.5-2.6-2.9a2.06 2.06 0 0 1 1.7-2.1l2.4-.5 1-.3c.3-.2.6-.5.6-.9s-.2-.8-.6-.9c-.8-.4-1.6-.3-2.5-.1-.4.1-.7.3-1.2.4l1.1-1.6c.2-.2.4-.3.6-.3 1.2-.2 2.3 0 3.4.6.7.4 1.1 1 1 1.9v4c0 1 .4 1.3 1.3 1.5.3-.2.4-.2.4-.1zm-23.6-.3l-.9 1.1c-.1.2-.3.2-.5.3-1.4.4-3-.3-3.7-1.6-.6-1.2-.3-3 1.5-3.4l1.9-.4c.5-.1 1-.2 1.4-.4s.7-.5.7-1-.3-.8-.7-1c-.8-.4-1.6-.3-2.4 0-.4.1-.7.3-1.1.4.3-1.2 1.2-1.9 2.3-1.9.9 0 1.8.2 2.6.6.7.4 1.1 1 1.1 1.9v4c0 1 .4 1.4 1.3 1.5.3.1.3.1.2.4-.1.1-.2.3-.3.5-.2.5-.5.5-1 .5-.6-.1-1.1-.4-1.6-.8-.2-.3-.4-.6-.4-.9l-.1-2.9c0-.1.1-.4-.2-.3-.8.4-1.7.5-2.5.7-.6.2-.9.5-1 1.1s.1 1.1.7 1.5a2.22 2.22 0 0 0 1.6.3c.3-.1.7-.1 1.1-.2zm36.8.1c-.8 1.3-.9 1.6-2.7 1.4-1.5-.2-2.6-1.4-2.5-2.9 0-1.1.7-1.9 1.7-2.1l2.9-.6c.1 0 .3-.1.4-.1.4-.2.7-.5.7-1s-.3-.8-.7-1c-.6-.3-1.2-.3-1.9-.1-.6.1-1.1.3-1.6.5.3-1.2 1.2-1.9 2.4-1.9.9 0 1.8.2 2.5.6a2.03 2.03 0 0 1 1.1 1.9v4c0 1 .3 1.3 1.2 1.5.3.1.3.1.2.4-.1.2-.2.3-.3.5-.2.4-.5.5-.9.4-.6-.1-1.2-.3-1.6-.8-.3-.3-.4-.7-.4-1.1l-.1-2.8c0-.3 0-.4-.3-.2-.7.4-1.5.4-2.3.6-.9.3-1.2.7-1.1 1.6.1.6.5.9 1 1.1.6.2 1.3.2 1.9.1.2 0 .3-.1.4 0zM87.5 23h-2.8c-.2 0-.2-.1-.1-.2.5-.5.5-1.1.5-1.7v-8.8c0-.7 0-1.4-.7-1.9 0 0 0-.1.1-.1h1c.4 0 .9.1 1.3-.2.1-.1.2 0 .2.1v11c-.1.7 0 1.3.5 1.8zm20.2 0h-3.2v-.1c.6-.5.7-1.1.7-1.8v-5.3c0-.5-.2-.9-.5-1.3-.1-.1-.2-.1-.1-.3h1.1c.3 0 .7 0 1-.2.2-.1.3 0 .3.2v1c.2 0 .2-.2.3-.2a2.39 2.39 0 0 1 2.3-1c.2 0 .3.1.3.3v1.2c0 .2 0 .3-.3.2-1.1-.5-2.2.1-2.5 1.2-.1.4-.2.9-.2 1.3 0 1.2 0 2.4.2 3.6.1.4.3.8.6 1.2zm-59.6 0h-3.2v-.1c.6-.5.7-1.1.6-1.8v-5.3c0-.6-.2-1-.5-1.4 0-.1-.1-.1-.1-.2v-.1H46c.3 0 .7 0 1-.2.2-.1.3 0 .3.2v1c.2 0 .2-.1.3-.2.6-.8 1.4-1.2 2.4-1 .2 0 .3.1.3.3v1.3c0 .2 0 .2-.2.2-1.4-.5-2.5.1-2.7 1.6s-.1 3 .1 4.5c.1.4.3.8.6 1.2zm26.1-11.3h-1.7c.3-.3.3-.6.2-1l-.5-3.6c-.4.3-.4.7-.6 1l-1.4 3.4c-.1.3-.2.3-.4.1-.4-.5-.7-1.1-.9-1.7-.5-.9-.9-1.8-1.3-2.7 0-.1-.1-.1-.2-.1l-.3 1.7-.3 2c-.1.3 0 .6.2.9h-1.3c.5-1.3.5-2.7.8-4.1 0-.2.1-.5.1-.7.1-.3.1-.6-.2-.9h1.5c.1 0 .2.1.2.2l1.7 3.6c.1.1.1.3.2.4L71 8a12.2 12.2 0 0 1 .7-1.7.26.26 0 0 1 .3-.3h1.4c-.3.3-.2.5-.2.8l.6 4.1c0 .3.1.5.4.8zM93.4 23c-.6.2-1.1.2-1.7-.1-.9-.4-1.5-1-2.1-1.8l-2.1-2.9a.37.37 0 0 1 0-.6c.7-.7 1.3-1.4 1.9-2.2.3-.4.7-.9 0-1.4h2.9l-.8 1-2.1 2.5c-.1.1-.2.2-.1.4l3.2 4c.3.5.6.8.9 1.1zM77.6 6h1.7c-.4.4-.3.9-.3 1.3v1.5c.3-.3.5-.6.7-.8l.9-1.2c.2-.2.4-.5-.1-.8h1.6c.1.1 0 .2-.1.2l-1.8 2.1c-.1.1-.2.2 0 .4l1.3 1.6c.4.5.9 1 1.5 1.3-.8.1-1.5.1-2-.5L79.2 9l-.3-.3c.1 1-.3 2 .3 2.9h-1.7c.5-.2.5-.6.5-1V7.2c0-.5 0-.9-.4-1.2zM55.5 23h-3.2v-.1c.6-.4.7-1 .6-1.7v-5.3a9.9 9.9 0 0 1 1.7 1.1c.1.1.1.3.1.4v3.9a2.11 2.11 0 0 0 .8 1.7zm.3-12.5c.5.4 1.1.6 1.6.7s.9 0 1.3-.2c.5-.3.6-.8.1-1.3-.2-.2-.5-.3-.7-.4l-1.3-.6c-.4-.2-.7-.4-.9-.8-.3-.6-.1-1.2.5-1.6 1-.6 2-.5 3-.3.1 0 .2.1.2.2v.7c-.1.1-.1 0-.2-.1-.5-.3-1.1-.4-1.7-.3-.4.1-.7.2-.8.6.1.5.3.7.7.9l1.8.8c.9.4 1.2 1.1.8 1.9-.2.3-.4.5-.7.7-1 .6-2.1.5-3.2.3-.1 0-.2-.1-.2-.2-.2-.4-.3-.6-.3-1zm7.8 1.2h-1.8c.5-.4.4-.8.4-1.2V7.1c0-.3-.1-.4-.4-.4-.5 0-1.1 0-1.6.3.1-.3.2-.5.2-.8.2-.2.3-.2.4-.2 1.5.1 2.9 0 4.4 0 .1.1-.1.3-.1.4-.1.5-.1.5-.6.3-.4-.1-.8 0-1.2 0-.1 0-.1.1-.1.3v3.9c0 .3.2.5.4.8zm11.2 0c.4-.3.4-.6.4-1V7c0-.3 0-.7-.4-1h1.7c-.4.4-.3.9-.3 1.3v3.3c0 .4 0 .7.4 1-.6.1-1.2.1-1.8.1z" fill="#023465"/><path d="M54.8 16.6c-.6-1-1.4-1.8-2.5-2.5h1c.5 0 .9 0 1.3-.3.1-.1.2-.2.2.1v2.7z" fill="#486A25"/></svg>